<svg width="109" height="100" viewBox="0 0 109 100" fill="none" xmlns="http://www.w3.org/2000/svg">
<path fill-rule="evenodd" clip-rule="evenodd" d="M54.2791 99.9999L74.2677 38.4817H34.2905L54.2791 99.9999Z" fill="#EB314A"/>
<path fill-rule="evenodd" clip-rule="evenodd" d="M54.2792 99.9998L34.2905 38.4815H6.27699L54.2792 99.9998Z" fill="#EB314A"/>
<path fill-rule="evenodd" clip-rule="evenodd" d="M6.27703 38.4817L0.202853 57.1765C-0.351179 58.8815 0.255618 60.7495 1.70614 61.8033L54.2792 99.9999L6.27703 38.4817Z" fill="#EB314A"/>
<path fill-rule="evenodd" clip-rule="evenodd" d="M6.27704 38.4818H34.2906L22.2514 1.42989C21.6322 -0.476889 18.9349 -0.476372 18.3157 1.42989L6.27704 38.4818Z" fill="#EB314A"/>
<path fill-rule="evenodd" clip-rule="evenodd" d="M54.2791 99.9998L74.2677 38.4815H102.281L54.2791 99.9998Z" fill="#EB314A"/>
<path fill-rule="evenodd" clip-rule="evenodd" d="M102.281 38.4817L108.355 57.1765C108.909 58.8815 108.303 60.7495 106.852 61.8033L54.2791 99.9999L102.281 38.4817Z" fill="#EB314A"/>
<path fill-rule="evenodd" clip-rule="evenodd" d="M102.281 38.4818H74.2677L86.307 1.42989C86.9262 -0.476889 89.6234 -0.476372 90.2426 1.42989L102.281 38.4818Z" fill="#EB314A"/>
</svg>
