<svg width="154" height="150" viewBox="0 0 154 150" fill="none" xmlns="http://www.w3.org/2000/svg">
<path fill-rule="evenodd" clip-rule="evenodd" d="M154 0H0V150H154V0ZM101.639 52.711C101.053 52.711 100.868 52.9575 100.868 53.4812H100.929V104.005C100.929 104.529 101.115 104.837 101.762 104.837H111.722C112.37 104.837 112.493 104.59 112.493 104.067V53.4812C112.493 52.8959 112.247 52.711 111.722 52.711H101.639ZM106.696 32.3783C103.057 32.3783 100.159 34.8121 100.159 38.9094C100.159 43.1608 102.872 45.4713 106.573 45.4405C110.489 45.4405 113.233 43.13 113.233 38.9094C113.233 34.9969 110.612 32.3783 106.696 32.3783ZM68.9741 65.6306C69.8895 69.1088 70.7199 72.2644 71.2951 74.5533H56.0925C58.7753 64.6026 62.1674 51.91 63.5242 44.4239H63.6476C64.7353 49.5232 67.0435 58.2944 68.9741 65.6306ZM48.4141 104.159L53.4713 84.9353H74.0396L79.3128 104.221C79.4361 104.683 79.7445 104.806 80.2687 104.806H90.9075C91.4317 104.806 91.555 104.498 91.4317 103.974L71.0176 34.8121C70.8942 34.2883 70.7092 34.1651 70.2467 34.1651H56.7709C56.4317 34.1651 56.2467 34.35 56.2467 34.8121C56.1233 37.9544 55.9075 39.0018 55.5991 40.1417L37.3744 103.851C37.2511 104.621 37.3744 104.806 38.022 104.806H47.4581C48.1057 104.806 48.2907 104.683 48.4141 104.159Z" fill="#EB314A"/>
</svg>
