<svg width="107" height="150" viewBox="0 0 107 150" fill="none" xmlns="http://www.w3.org/2000/svg">
<path d="M25.0099 0H41.1232V6.73828H31.7482V13.4766H41.1232V20.2148H25.0099V0Z" fill="#EB314A"/>
<path d="M44.3458 0H60.4591V5.85938H51.0841V7.03125H60.4591V20.5078H44.3458V14.3555H53.7208V13.1836H44.3458V0Z" fill="#EB314A"/>
<path d="M63.6818 0H79.795V5.85938H70.42V7.03125H79.795V20.5078H63.6818V14.3555H73.0568V13.1836H63.6818V0Z" fill="#EB314A"/>
<path fill-rule="evenodd" clip-rule="evenodd" d="M96.5883 137.935L106.27 29.4785H0L9.67119 137.952L53.0698 150L96.5883 137.935ZM19.7751 51.6519H53.0889H53.1348H86.4152L84.0135 78.5792L83.6889 82.1517L80.3625 119.424L53.1348 126.97V126.972L53.0736 126.989L25.8217 119.424L23.9578 98.5351H37.3128L38.2599 109.146L53.0765 113.146L53.0889 113.143V113.142L67.9268 109.137L69.4711 91.8829H53.0889V91.8829H23.3634L22.171 78.5792H53.1349V78.5792H70.6248L71.8353 64.9559H53.1348H53.0889H20.9845L19.7751 51.6519Z" fill="#EB314A"/>
</svg>
