<svg width="100" height="150" viewBox="0 0 100 150" fill="none" xmlns="http://www.w3.org/2000/svg">
<path d="M25 150C38.8 150 50 138.8 50 125V100H25C11.2 100 0 111.2 0 125C0 138.8 11.2 150 25 150Z" fill="#EB314A"/>
<path d="M0 75C0 61.2 11.2 50 25 50H50V100H25C11.2 100 0 88.8 0 75Z" fill="#EB314A"/>
<path d="M0 25C0 11.2 11.2 0 25 0H50V50H25C11.2 50 0 38.8 0 25Z" fill="#EB314A"/>
<path d="M50 0H75C88.8 0 100 11.2 100 25C100 38.8 88.8 50 75 50H50V0Z" fill="#EB314A"/>
<path d="M100 75C100 88.8 88.8 100 75 100C61.2 100 50 88.8 50 75C50 61.2 61.2 50 75 50C88.8 50 100 61.2 100 75Z" fill="#EB314A"/>
</svg>
