<svg width="107" height="150" viewBox="0 0 107 150" fill="none" xmlns="http://www.w3.org/2000/svg">
<path d="M9.90234 0H16.6406V6.67969H22.8516V0H29.5898V20.2148H22.8516V13.4766H16.6992V20.2148H9.90234V0ZM38.4961 6.73828H32.5488V0H51.2109V6.73828H45.2344V20.2148H38.4961V6.73828ZM54.1699 0H61.2305L65.5664 7.11914L69.9023 0H76.9629V20.2148H70.2246V10.1953L65.5078 17.4609L60.791 10.1953V20.2148H54.1699V0ZM80.3027 0H87.041V13.5352H96.5918V20.2148H80.3027" fill="#EB314A"/>
<path fill-rule="evenodd" clip-rule="evenodd" d="M0 29.4727L9.66797 137.988L53.0566 150L96.6211 137.93L106.289 29.4727H0ZM53.0859 51.6504H19.7461L23.3789 91.8457H53.0859V91.875H69.4922L67.9394 109.16L53.1152 113.137L38.2617 109.16L37.3242 98.5254H23.9648L25.8398 119.414L53.1445 127.031V126.956L80.332 119.414L83.9941 78.5742H53.1445H53.0859H35.5664L34.3359 64.9512H53.0859H53.1445H85.1953L86.4258 51.6504H53.1445H53.0859Z" fill="#EB314A"/>
</svg>
