<svg width="111" height="150" viewBox="0 0 111 150" fill="none" xmlns="http://www.w3.org/2000/svg">
<path fill-rule="evenodd" clip-rule="evenodd" d="M35.6273 116.001C35.6273 116.001 29.8985 119.335 39.709 120.461C51.5961 121.818 57.6703 121.622 70.7658 119.147C70.7658 119.147 74.2158 121.305 79.0255 123.174C49.6592 135.756 12.5636 122.445 35.6273 116.001Z" fill="#EB314A"/>
<path fill-rule="evenodd" clip-rule="evenodd" d="M32.0371 99.58C32.0371 99.58 25.6107 104.338 35.4286 105.353C48.1276 106.664 58.1525 106.771 75.5095 103.431C75.5095 103.431 77.9046 105.864 81.6764 107.193C46.1765 117.577 6.63672 108.01 32.0371 99.58Z" fill="#EB314A"/>
<path fill-rule="evenodd" clip-rule="evenodd" d="M62.2866 71.7208C69.5262 80.0544 60.3882 87.5475 60.3882 87.5475C60.3882 87.5475 78.76 78.0652 70.3245 66.1851C62.4432 55.1113 56.4008 49.6104 89.113 30.6394C89.1134 30.6394 37.7629 43.4612 62.2866 71.7208Z" fill="#EB314A"/>
<path fill-rule="evenodd" clip-rule="evenodd" d="M101.125 128.149C101.125 128.149 105.366 131.645 96.4542 134.348C79.5079 139.481 25.9084 141.03 11.021 134.554C5.67313 132.224 15.7066 128.996 18.8636 128.314C22.1552 127.602 24.0346 127.732 24.0346 127.732C18.0828 123.541 -14.4347 135.963 7.51937 139.526C67.389 149.23 116.653 135.155 101.125 128.149Z" fill="#EB314A"/>
<path fill-rule="evenodd" clip-rule="evenodd" d="M38.3844 82.5636C38.3844 82.5636 11.1239 89.0404 28.7311 91.3943C36.1678 92.3894 50.9839 92.1605 64.7948 91.0018C76.0786 90.0547 87.4025 88.0293 87.4025 88.0293C87.4025 88.0293 83.4267 89.7349 80.5482 91.6992C52.86 98.9816 -0.618486 95.5901 14.7795 88.1448C27.7957 81.8479 38.3844 82.5636 38.3844 82.5636Z" fill="#EB314A"/>
<path fill-rule="evenodd" clip-rule="evenodd" d="M87.2897 109.897C115.434 95.2765 102.42 81.2244 93.3364 83.1171C91.1153 83.5806 90.1188 83.9821 90.1188 83.9821C90.1188 83.9821 90.9464 82.6857 92.5222 82.1279C110.492 75.8134 124.308 100.758 86.7273 110.637C86.727 110.637 87.1593 110.246 87.2897 109.897Z" fill="#EB314A"/>
<path fill-rule="evenodd" clip-rule="evenodd" d="M70.3249 0C70.3249 0 85.908 15.5921 55.5401 39.5617C31.187 58.7968 49.9874 69.7601 55.5314 82.2925C41.3147 69.4668 30.887 58.1747 37.8814 47.6666C48.1525 32.2441 76.6108 24.7642 70.3249 0Z" fill="#EB314A"/>
<path fill-rule="evenodd" clip-rule="evenodd" d="M41.1515 149.529C68.1605 151.256 109.647 148.569 110.629 135.787C110.629 135.787 108.742 140.632 88.3058 144.477C65.2507 148.817 36.8086 148.312 19.946 145.528C19.946 145.528 23.4005 148.387 41.1515 149.529Z" fill="#EB314A"/>
</svg>
