<svg width="150" height="150" viewBox="0 0 150 150" fill="none" xmlns="http://www.w3.org/2000/svg">
<path fill-rule="evenodd" clip-rule="evenodd" d="M34.4238 0C15.4121 0 0 15.4121 0 34.4238V115.576C0 134.588 15.4121 150 34.4238 150H115.576C134.588 150 150 134.588 150 115.576V34.4238C150 15.4121 134.588 0 115.576 0H34.4238ZM17.4277 134.033C16.329 121.851 21.2731 91.8054 43.1356 77.124C57.9009 67.2087 65.6353 65.452 74.2473 63.4959C83.193 61.4641 93.0856 59.2172 112.789 47.3877C115.279 45.8926 130.294 34.4238 131.466 15.9668C135.494 31.2744 130.294 57.8613 114.913 71.2646C99.5321 84.668 77.5595 95.7275 50.1669 99.9756C28.2528 103.374 19.1855 124.097 17.4277 133.96L17.4277 134.033Z" fill="#EB314A"/>
</svg>
