<svg width="154" height="150" viewBox="0 0 154 150" fill="none" xmlns="http://www.w3.org/2000/svg">
<path fill-rule="evenodd" clip-rule="evenodd" d="M154 0H0V150H154V0ZM96.9482 66.2454C96.9482 64.1184 98.6745 61.5598 103.73 61.5598C107.892 61.5598 112.053 62.6387 114.889 64.4266C115.536 64.6116 115.845 64.3034 115.845 63.7793V54.9939C115.845 54.5315 115.721 54.0074 115.197 53.6992C113.101 52.7435 109.248 51.9112 103.73 51.9112C92.5093 51.9112 86.0358 58.7855 86.0358 67.0469C86.0358 74.4451 89.8274 78.8533 98.9211 83.1998C105.395 86.5598 106.874 88.5944 106.874 90.9063C106.874 93.7731 104.747 95.9001 99.6917 95.9001C95.4686 95.9001 90.8446 94.7287 86.8064 92.1085C86.344 91.8003 86.0358 91.9852 86.0358 92.6326V102.096C86.0358 102.589 86.0974 102.928 86.5598 103.113C89.3033 104.716 94.1122 105.857 99.6917 105.857C110.265 105.857 118.095 100.339 118.095 90.074C118.095 83.2306 114.951 78.545 104.901 73.6745C98.0888 70.1603 96.9482 68.5574 96.9482 66.2454ZM53.7907 69.2972C51.2328 69.2972 50.0923 69.2972 48.6128 69.1739L48.582 44.4205C49.7534 44.3588 52.1887 44.2355 54.7472 44.2355C63.2861 44.2355 68.3416 48.3354 68.3416 56.4735C68.3416 66.677 61.2824 69.2972 53.7916 69.2972H53.7907ZM38.5943 34.3712C38.0703 34.3712 37.1763 34.6794 37.1763 35.1418V103.977C37.1763 104.562 37.4229 104.747 37.947 104.747H47.7497C48.3354 104.747 48.5204 104.501 48.5204 103.977V79.3773C49.3094 79.3773 49.9117 79.4031 50.5657 79.4311C51.3424 79.4643 52.1921 79.5006 53.5142 79.5006C68.0025 79.5006 79.8089 72.5031 79.8089 56.2269C79.8089 43.804 72.873 34.0629 55.1171 34.0629C48.7978 34.0629 42.6942 34.1862 38.5943 34.3712Z" fill="#EB314A"/>
</svg>
