<svg width="149" height="150" viewBox="0 0 149 150" fill="none" xmlns="http://www.w3.org/2000/svg">
<path d="M73.2973 0.00122691C67.1798 0.0296527 61.3376 0.551393 56.1971 1.461C41.0539 4.13631 38.3045 9.73596 38.3045 20.0627V33.7011H74.0898V38.2473H38.3045H24.8746C14.4744 38.2473 5.36766 44.4984 2.5192 56.3902C-0.766469 70.0209 -0.912206 78.5267 2.5192 92.7594C5.06294 103.354 11.1378 110.902 21.538 110.902H33.8418V94.5528C33.8418 82.7413 44.0614 72.3225 56.1971 72.3225H91.9407C101.89 72.3225 109.833 64.1302 109.833 54.1379V20.0627C109.833 10.3647 101.652 3.07956 91.9407 1.461C85.7933 0.43769 79.4149 -0.0271989 73.2973 0.00122691ZM53.9449 10.9704C57.6413 10.9704 60.6599 14.0383 60.6599 17.8105C60.6599 21.5693 57.6413 24.6088 53.9449 24.6088C50.2353 24.6088 47.23 21.5693 47.23 17.8105C47.23 14.0383 50.2353 10.9704 53.9449 10.9704Z" fill="#EB314A"/>
<path d="M114.296 38.2473V54.1379C114.296 66.4578 103.851 76.827 91.9407 76.827H56.1971C46.4063 76.827 38.3044 85.2065 38.3044 95.0116V129.087C38.3044 138.785 46.7375 144.489 56.1971 147.271C67.5247 150.602 78.3873 151.204 91.9407 147.271C100.95 144.663 109.833 139.414 109.833 129.087V115.448H74.0897V110.902H109.833H127.726C138.126 110.902 142.002 103.648 145.619 92.7593C149.355 81.5498 149.196 70.77 145.619 56.3901C143.048 46.0367 138.139 38.2473 127.726 38.2473H114.296ZM94.1929 124.541C97.9025 124.541 100.908 127.58 100.908 131.339C100.908 135.111 97.9025 138.179 94.1929 138.179C90.4965 138.179 87.4779 135.111 87.4779 131.339C87.4779 127.58 90.4965 124.541 94.1929 124.541Z" fill="#EB314A"/>
</svg>
